# xmcd CD database file
# Copyright (C) 1996 Ti Kan
#
# Track frame offsets:
#  150
#  13320
#  26772
#  43282
#  56907
#  72695
#  83895
#  95970
#  112497
#  125520
#  141007
#  159195
#  170685
#  182797
#  200220
#  218107
#  236509
#  252360
#  270322
#  284210
#  298020
#  311092
#  326587
#
# Disc length: 4585 seconds
#
# Revision: 1
# Processed by: cddbd v1.4b41PL1 Copyright (c) Steve Scherf et al.
# Submitted via: CDWizzard Release:4.10
#
DISCID=8111e717
DTITLE=Oak Ridge Boys - Oak Ridge Boys: Legendary Country Singers
DYEAR=1900
DGENRE=
TTITLE0=Y'All Come Back Saloon
TTITLE1=You're the One
TTITLE2=I'll Be True to You
TTITLE3=Leaving Louisiana in Broad Daylight
TTITLE4=Sail Away
TTITLE5=Trying to Love Two Women
TTITLE6=Elvira
TTITLE7=Fancy Free
TTITLE8=Bobbie Sue
TTITLE9=I Wish You Could Have Turned My Head (and Left My Heart Alone)
TTITLE10=I Guess It Never Hurts to Hurt Sometimes
TTITLE11=Thank God for Kids
TTITLE12=American Made
TTITLE13=Love Song
TTITLE14=Everyday
TTITLE15=Make My Life with You
TTITLE16=Touch a Hand, Make a Friend
TTITLE17=It Takes a Little Rain (to Make Love Grow)
TTITLE18=This Crazy Love
TTITLE19=Gonna Take a Lot of River
TTITLE20=No Matter How High
TTITLE21=Lucky Moon
TTITLE22=Praise the Lord and Pass the Soup
EXTD=
EXTT0=Oak Ridge Boys
EXTT1=Oak Ridge Boys
EXTT2=Oak Ridge Boys
EXTT3=Oak Ridge Boys
EXTT4=Oak Ridge Boys
EXTT5=Oak Ridge Boys
EXTT6=Oak Ridge Boys
EXTT7=Oak Ridge Boys
EXTT8=Oak Ridge Boys
EXTT9=Oak Ridge Boys
EXTT10=Oak Ridge Boys
EXTT11=Oak Ridge Boys
EXTT12=Oak Ridge Boys
EXTT13=Oak Ridge Boys
EXTT14=Oak Ridge Boys
EXTT15=Oak Ridge Boys
EXTT16=Oak Ridge Boys
EXTT17=Oak Ridge Boys
EXTT18=Oak Ridge Boys
EXTT19=Oak Ridge Boys
EXTT20=Oak Ridge Boys
EXTT21=Oak Ridge Boys
EXTT22=Oak Ridge Boys
PLAYORDER=
